<svg width="1000" height="1000" fill="none" xmlns="http://www.w3.org/2000/svg"><path stroke="#DDD" d="M500 406v-10"/><path stroke="#000" stroke-width=".5" d="M500.75 406v-10M499.25 406v-10"/><path stroke="#DDD" d="M500 372v-10"/><path stroke="#000" stroke-width=".5" d="M500.75 372v-10M499.25 372v-10M500.75 338v-10M499.25 338v-10"/><path stroke="#DDD" d="M500 304v-10"/><path stroke="#000" stroke-width=".5" d="M500.75 304v-10M499.25 304v-10"/><path stroke="#DDD" d="M477.999 333h44.002"/><path stroke="#000" stroke-width=".5" d="M478 333.75h44M478 332.25h44"/><path stroke="#DDD" d="M500 338v-10M546 333h18"/><path stroke="#000" stroke-width=".5" d="M546 332.25h16"/><path stroke="#DDD" d="M563 334v-17"/><path stroke="#000" stroke-width=".5" d="M546 333.75h18M563.75 334v-16M562.25 332.5V318"/><path stroke="#DDD" d="M563 294v-10"/><path stroke="#000" stroke-width=".5" d="M562.25 294v-10M563.75 294v-10"/><path stroke="#DDD" d="M563 260v-10"/><path stroke="#000" stroke-width=".5" d="M562.25 260v-10M563.75 260v-10M563.751 226v-5M562.251 226v-5"/><path stroke="#DDD" d="M545.5 221h35"/><path stroke="#000" stroke-width=".5" d="M545 221.75h36M546.5 220.25h34"/><path stroke="#DDD" d="M563.001 226v-5"/><path stroke="#000" stroke-width=".5" d="M546.75 220v-5M545.25 221.5v-7"/><path stroke="#DDD" d="M546 221v-6"/><path stroke="#000" stroke-width=".5" d="M579.25 220v-5M580.75 221.5v-7"/><path stroke="#DDD" d="M580 221v-6M546 191v-10"/><path stroke="#000" stroke-width=".5" d="M546.75 191v-10M545.25 191v-10"/><path stroke="#DDD" d="M454 333h-18"/><path stroke="#000" stroke-width=".5" d="M454 332.25h-16"/><path stroke="#DDD" d="M437 334v-17"/><path stroke="#000" stroke-width=".5" d="M454 333.75h-18M436.25 334v-16M437.75 332.5V318"/><path stroke="#DDD" d="M437 294v-10"/><path stroke="#000" stroke-width=".5" d="M437.75 294v-10M436.25 294v-10M436.249 260v-5M437.749 260v-5"/><path stroke="#DDD" d="M454.5 255h-35"/><path stroke="#000" stroke-width=".5" d="M455 255.75h-36M453.5 254.25h-34"/><path stroke="#DDD" d="M436.999 260v-5"/><path stroke="#000" stroke-width=".5" d="M453.25 254v-5M454.75 255.5v-7"/><path stroke="#DDD" d="M454 255v-6"/><path stroke="#000" stroke-width=".5" d="M420.75 254v-5M419.25 255.5v-7"/><path stroke="#DDD" d="M420 255v-6"/></svg>